<?xml version="1.0" encoding="UTF-8" standalone="no"?>
<svg
   width="32"
   height="32"
   viewBox="0 0 24 24"
   fill="none"
   stroke="currentColor"
   stroke-width="1"
   stroke-linecap="round"
   stroke-linejoin="round"
   class="lucide lucide-search-icon lucide-search"
   version="1.1"
   id="svg1"
   xmlns="http://www.w3.org/2000/svg"
   xmlns:svg="http://www.w3.org/2000/svg">
  <defs
     id="defs1" />
  <path
     d="M 23.368429,23.368428 17.886322,17.886322"
     id="path1"
     style="stroke-width:1.26315" />
  <ellipse
     cx="10.736849"
     cy="10.736847"
     id="circle1"
     rx="10.105265"
     ry="10.105266"
     style="stroke-width:1.26315" />
  <path
     style="fill:#ffffff;fill-rule:evenodd;stroke:#aa4344;stroke-width:0.75;stroke-opacity:1"
     id="path2"
     d="m 10.814815,11.160494 c -0.118095,0.195683 -0.322041,-0.06265 -0.325238,-0.196282 -0.0087,-0.362142 0.417407,-0.526058 0.717801,-0.454194 0.537333,0.128549 0.75133,0.754473 0.58315,1.23932 -0.246811,0.711534 -1.095579,0.981809 -1.76084,0.712108 -0.8866879,-0.35947 -1.2144157,-1.43805 -0.8410631,-2.28236 0.4698261,-1.0624771 1.7811541,-1.4481073 2.8038791,-0.9700198 1.238656,0.579028 1.682423,2.1246118 1.098976,3.3253988 -0.687572,1.415084 -2.46829,1.91713 -3.8469176,1.227932 C 7.6528819,12.966692 7.0924641,10.950283 7.8876731,9.3939601 8.79124,7.625567 11.043715,7.006711 12.77763,7.9081144 14.72282,8.9193529 15.400163,11.408159 14.392432,13.319591 13.27366,15.441642 10.548327,16.177507 8.4594362,15.063349 6.1604761,13.837146 5.3660603,10.875141 6.5867213,8.608834 7.9202757,6.1329269 11.119068,5.2799383 13.562756,6.6071626 16.21564,8.0480066 17.127219,11.483676 15.693384,14.104717 14.1453,16.934602 10.472681,17.904787 7.6743101,16.364301 4.6674029,14.709017 3.6386013,10.79939 5.2857695,7.8237079 7.0482202,4.6397625 11.194904,3.5523337 14.347882,5.3062109 c 2.101164,1.1687945 3.454066,3.4107344 3.551545,5.8081141"
     transform="matrix(1.2631583,0,0,1.2631583,-3.0331367,-3.0331368)" />
</svg>
